<?xml version="1.0" encoding="UTF-8"?>
<svg width="474px" height="120px" viewBox="0 0 474 120" version="1.1" xmlns="http://www.w3.org/2000/svg" xmlns:xlink="http://www.w3.org/1999/xlink">
    <title>logo</title>
    <g id="Page-1" stroke="none" stroke-width="1" fill="none" fill-rule="evenodd">
        <g id="logo" transform="translate(1.000000, 1.000000)" fill="#1B1B1B" fill-rule="nonzero" stroke="#000000" stroke-width="1.6">
            <polygon id="path2452" points="102.123184 0.5472416 76.540416 0.5472416 76.540416 44.8907136 26.150096 44.8907136 26.150096 0.5472416 0.567328 0.5472416 0.567328 115.747241 26.150096 115.747241 26.150096 67.0624496 76.540416 67.0624496 76.540416 115.747241 102.123184 115.747241"></polygon>
            <path d="M210.432672,73.7294752 L210.432672,30.4713328 L188.260928,30.4713328 L188.260928,73.7294752 C188.260928,85.358008 178.803056,94.970928 167.174528,94.970928 C155.546,94.970928 146.088128,85.358008 146.088128,73.7294752 L146.088128,30.4713328 L123.916384,30.4713328 L123.916384,73.7294752 C123.916384,97.6067296 143.29728,116.987618 167.174528,116.987618 C191.051776,116.987618 210.432672,97.6067296 210.432672,73.7294752 Z" id="path2454"></path>
            <path d="M229.52648,67.5275904 L229.52648,115.747241 L251.698224,115.747241 L251.698224,67.5275904 C251.698224,58.5348592 258.985424,51.2476448 267.97816,51.2476448 L267.97816,29.0759088 C246.736704,29.0759088 229.52648,46.2861376 229.52648,67.5275904 Z" id="path2456"></path>
            <path d="M324.33416,29.0759088 C299.99176,29.0759088 280.145728,48.9219376 280.145728,73.2643344 C280.145728,97.6067296 299.99176,117.452759 324.33416,117.452759 C348.676544,117.452759 368.367536,97.6067296 368.367536,73.2643344 C368.367536,48.9219376 348.676544,29.0759088 324.33416,29.0759088 Z M324.33416,95.2810224 C312.085424,95.2810224 302.317456,85.358008 302.317456,73.2643344 C302.317456,61.1706592 312.085424,51.2476448 324.33416,51.2476448 C336.427824,51.2476448 346.350848,61.1706592 346.350848,73.2643344 C346.350848,85.358008 336.427824,95.2810224 324.33416,95.2810224 Z" id="path2458"></path>
            <path d="M428.174528,29.0759088 C404.29728,29.0759088 384.916384,48.6118432 384.916384,72.4890976 L384.916384,115.747241 L407.088128,115.747241 L407.088128,72.4890976 C407.088128,60.7055184 416.546,51.2476448 428.174528,51.2476448 C439.803056,51.2476448 449.260928,60.7055184 449.260928,72.4890976 L449.260928,115.747241 L471.432672,115.747241 L471.432672,72.4890976 C471.432672,48.6118432 452.051776,29.0759088 428.174528,29.0759088 Z" id="path2460"></path>
        </g>
    </g>
</svg>